<svg width="400" height="460" viewBox="0 0 400 460" xmlns="http://www.w3.org/2000/svg" role="img" aria-labelledby="title desc">
  <title id="title">Abstract portrait illustration</title>
  <desc id="desc">Geometric shapes in blue and gold representing a software engineer.</desc>
  <defs>
    <linearGradient id="bg" x1="0%" y1="0%" x2="100%" y2="100%">
      <stop offset="0%" stop-color="#0f4c81" />
      <stop offset="100%" stop-color="#0b2e55" />
    </linearGradient>
    <linearGradient id="accent" x1="0%" y1="0%" x2="100%" y2="0%">
      <stop offset="0%" stop-color="#f2d67b" />
      <stop offset="100%" stop-color="#d4a93c" />
    </linearGradient>
  </defs>
  <rect width="400" height="460" rx="32" fill="url(#bg)"/>
  <circle cx="200" cy="120" r="78" fill="#ffffff" opacity="0.12"/>
  <circle cx="200" cy="160" r="90" fill="#ffffff" opacity="0.08"/>
  <path d="M140 220 Q200 170 260 220 L250 320 Q200 360 150 320 Z" fill="#ffffff" opacity="0.12"/>
  <path d="M150 220 Q200 180 250 220 L242 310 Q200 340 158 310 Z" fill="#ffffff" opacity="0.2"/>
  <circle cx="200" cy="200" r="62" fill="#ffffff" opacity="0.24"/>
  <circle cx="200" cy="190" r="42" fill="url(#accent)" opacity="0.8"/>
  <rect x="135" y="265" width="130" height="140" rx="26" fill="#ffffff" opacity="0.16"/>
  <rect x="150" y="280" width="100" height="118" rx="22" fill="#ffffff" opacity="0.24"/>
  <circle cx="120" cy="80" r="28" fill="url(#accent)" opacity="0.65"/>
  <circle cx="310" cy="90" r="22" fill="#f3e6bf" opacity="0.6"/>
  <circle cx="320" cy="320" r="32" fill="#f2d67b" opacity="0.4"/>
  <circle cx="90" cy="340" r="38" fill="#0b2e55" opacity="0.4"/>
</svg>
