<svg width="800" height="600" viewBox="0 0 800 600" fill="none" xmlns="http://www.w3.org/2000/svg">
  <defs>
    <linearGradient id="gradA" x1="0" y1="0" x2="1" y2="1">
      <stop offset="0%" stop-color="#0F172A"/>
      <stop offset="100%" stop-color="#1E293B"/>
    </linearGradient>
    <linearGradient id="gradB" x1="0" y1="0" x2="1" y2="1">
      <stop offset="0%" stop-color="#22D3EE" stop-opacity="0.8"/>
      <stop offset="100%" stop-color="#6366F1" stop-opacity="0.6"/>
    </linearGradient>
  </defs>
  <rect width="800" height="600" rx="38" fill="url(#gradA)"/>
  <rect x="70" y="110" width="660" height="380" rx="32" fill="rgba(30, 41, 59, 0.85)" stroke="rgba(148, 163, 184, 0.28)" stroke-width="2"/>
  <rect x="120" y="160" width="560" height="260" rx="24" fill="rgba(15, 118, 110, 0.16)" stroke="rgba(34, 211, 238, 0.35)" stroke-width="2"/>
  <path d="M160 348C220 280 300 340 360 288C420 236 500 188 580 260" stroke="url(#gradB)" stroke-width="12" stroke-linecap="round" fill="none"/>
  <rect x="160" y="206" width="60" height="60" rx="18" fill="rgba(59, 130, 246, 0.22)"/>
  <rect x="240" y="206" width="80" height="24" rx="12" fill="rgba(248, 250, 252, 0.7)"/>
  <rect x="240" y="242" width="120" height="14" rx="7" fill="rgba(248, 250, 252, 0.4)"/>
  <rect x="160" y="420" width="300" height="22" rx="11" fill="rgba(248, 250, 252, 0.6)"/>
  <rect x="160" y="452" width="200" height="14" rx="7" fill="rgba(248, 250, 252, 0.35)"/>
</svg>
